<svg width="552" height="57" viewBox="0 0 552 57" fill="none" xmlns="http://www.w3.org/2000/svg">
<path d="M121.677 42.631V20.8848H124.808L125.231 25.2848H125.485C126.669 22.1541 129.039 20.5464 132.508 20.5464V23.7618C127.6 23.8464 125.231 26.7233 125.231 32.5618V42.631H121.677Z" fill="#20201F"/>
<path d="M142.323 29.685H148.077V28.0773C148.077 24.9465 146.385 23.3388 143.085 23.3388C140.123 23.3388 138.092 24.8619 138.008 27.2311H134.539C134.708 25.2004 135.554 23.5927 137.162 22.3234C138.769 21.0542 140.8 20.4619 143.254 20.4619C148.669 20.4619 151.631 23.3388 151.631 28.3311V38.2311C151.631 39.0773 151.715 39.9235 152.985 39.9235C153.239 39.9235 153.577 39.9235 153.746 39.8388V42.6311C153.154 42.8004 152.562 42.885 151.885 42.885C149.431 42.885 148.246 41.6158 148.246 39.0773H147.992C147.062 41.4465 144.185 43.0542 140.8 43.0542C136.485 43.0542 133.523 40.5158 133.523 36.7081C133.608 32.1388 136.908 29.685 142.323 29.685ZM141.562 40.0081C145.454 40.0081 148.077 37.3004 148.077 33.4081V32.3081H142.577C139.023 32.3081 137.331 33.7465 137.331 36.285C137.246 38.6542 138.939 40.0081 141.562 40.0081Z" fill="#20201F"/>
<path d="M157.3 42.6311V20.885H160.431L160.854 24.9465H161.192C162.546 21.985 164.746 20.4619 167.877 20.4619C170.923 20.4619 173.208 22.4081 174.223 25.2004H174.562C175.831 22.1542 178.539 20.4619 181.669 20.4619C186.239 20.4619 188.946 23.7619 188.946 29.2619V42.6311H185.308V29.685C185.308 25.7081 183.7 23.7619 180.569 23.7619C176.762 23.7619 174.9 26.6388 174.9 31.2081V42.7158H171.346V29.685C171.346 25.7081 169.739 23.7619 166.608 23.7619C163.054 23.7619 160.854 26.7235 160.854 31.1235V42.7158H157.3V42.6311Z" fill="#20201F"/>
<path d="M67.354 27.4846C67.354 18.1769 73.0232 12 81.4848 12C88.4232 12 93.5848 15.9769 94.5155 22.2385H90.7078C89.6925 17.9231 86.1386 15.3846 81.4848 15.3846C74.8848 15.3846 71.1617 20.2077 71.1617 27.5692C71.1617 35.0154 74.8848 39.7539 81.4001 39.7539C86.5617 39.7539 89.7771 36.9615 90.7078 32.7308H94.5155C93.6694 38.9923 88.5078 43.0538 81.4848 43.0538C72.9386 43.0538 67.354 36.8769 67.354 27.4846Z" fill="#20201F"/>
<path d="M98.4077 34.4234V21.0542H101.962V33.7465C101.962 37.9773 103.569 39.9234 107.123 39.9234C110.846 39.9234 113.3 37.1311 113.3 32.4773V21.0542H116.769V42.6311H113.469L113.3 38.6542H112.962C111.946 41.4465 109.323 43.0542 106.108 43.0542C101.369 43.0542 98.4077 40.1773 98.4077 34.4234Z" fill="#20201F"/>
<path d="M28.1768 56.3385C12.7768 56.3385 0.338379 43.8155 0.338379 28.5001C0.338379 13.1847 12.8615 0.661621 28.1768 0.661621C43.4922 0.661621 56.0153 13.1847 56.0153 28.5001C56.0153 43.8155 43.4922 56.3385 28.1768 56.3385Z" fill="#FF8241"/>
<path d="M28.0925 22.4077C24.2848 22.4077 21.1541 19.2769 21.1541 15.4692C21.1541 11.6615 24.2848 8.53076 28.0925 8.53076C31.9002 8.53076 35.031 11.6615 35.031 15.4692C35.031 19.2769 31.9848 22.4077 28.0925 22.4077ZM28.0925 11.2385C25.8079 11.2385 23.9464 13.1 23.9464 15.3846C23.9464 17.6692 25.8079 19.6154 28.0925 19.6154C30.3771 19.6154 32.2387 17.7538 32.2387 15.4692C32.2387 13.1846 30.4617 11.2385 28.0925 11.2385Z" fill="white"/>
<path d="M16.1615 28.8382C13.1154 28.8382 10.5769 26.2997 10.5769 23.2536C10.5769 20.2074 13.1154 17.6689 16.1615 17.6689C19.2077 17.6689 21.7461 20.2074 21.7461 23.2536C21.7461 26.2997 19.2923 28.8382 16.1615 28.8382ZM16.1615 20.4613C14.6384 20.4613 13.3692 21.7305 13.3692 23.2536C13.3692 24.7766 14.6384 26.0459 16.1615 26.0459C17.6846 26.0459 18.9538 24.7766 18.9538 23.2536C18.9538 21.7305 17.7692 20.4613 16.1615 20.4613Z" fill="white"/>
<path d="M40.1078 28.8382C37.0617 28.8382 34.5232 26.2997 34.5232 23.2536C34.5232 20.2074 37.0617 17.6689 40.1078 17.6689C43.154 17.6689 45.6924 20.2074 45.6924 23.2536C45.6924 26.2997 43.2386 28.8382 40.1078 28.8382ZM40.1078 20.4613C38.5847 20.4613 37.3155 21.7305 37.3155 23.2536C37.3155 24.7766 38.5847 26.0459 40.1078 26.0459C41.6309 26.0459 42.9001 24.7766 42.9001 23.2536C42.9001 21.7305 41.7155 20.4613 40.1078 20.4613Z" fill="white"/>
<path d="M28.0925 48.638C18.531 48.638 10.7463 40.8534 10.7463 31.2918V29.938H12.1002C14.4694 29.938 16.6694 30.3611 18.8694 31.2918L17.7694 33.8303C16.4156 33.238 15.0617 32.8995 13.6233 32.7303C14.3848 40.0072 20.5617 45.7611 28.0925 45.7611V48.638Z" fill="white"/>
<path d="M28.0923 48.638V45.8457C35.6231 45.8457 41.8 40.0918 42.5615 32.8149C41.1231 32.9841 39.7692 33.3226 38.4154 33.8303L37.3154 31.2918C39.4307 30.3611 41.7154 29.938 44 29.938H45.3538V31.2918C45.4384 40.8534 37.6538 48.638 28.0923 48.638Z" fill="white"/>
<path d="M28.0923 48.6379C26.4 48.6379 24.7076 47.961 23.4384 46.6918C19.8846 43.1379 18.6153 37.8918 20.1384 33.0687C20.9846 30.4456 22.6769 28.161 25.1307 26.3841L28.1769 24.1841L31.223 26.3841C33.6769 28.161 35.3692 30.5302 36.2153 33.0687C37.7384 37.8918 36.4692 43.1379 32.9153 46.6918C31.4769 47.961 29.7846 48.6379 28.0923 48.6379ZM28.0923 27.5687L26.7384 28.5841C24.7923 30.0225 23.3538 31.8841 22.7615 33.9149C21.5769 37.7225 22.5923 41.9533 25.3846 44.7456C26.9076 46.2687 29.2769 46.2687 30.8 44.7456C33.6769 41.8687 34.6923 37.7225 33.423 33.9149C32.7461 31.8841 31.3923 30.0225 29.4461 28.5841L28.0923 27.5687Z" fill="white"/>
<path d="M108.562 12.2539H112.285L108.985 18.0077H106.362L108.562 12.2539Z" fill="#20201F"/>
</svg>
